<svg width="31" height="28" viewBox="0 0 31 28" fill="none" xmlns="http://www.w3.org/2000/svg">
<path d="M19.3531 10.6219C20.8189 10.6219 22.0086 11.8115 22.0086 13.2774V20.4836C22.0086 22.295 21.289 24.0322 20.0081 25.313C18.7273 26.5939 16.9901 27.3134 15.1787 27.3134C13.3673 27.3134 11.6301 26.5939 10.3492 25.313C9.06838 24.0322 8.34881 22.295 8.34881 20.4836V13.2774C8.34881 11.8115 9.53694 10.6219 11.0043 10.6219H19.3531ZM7.78585 10.6219C7.23755 11.2786 6.90857 12.0904 6.84505 12.9435L6.82988 13.2774V20.4836C6.82988 21.7688 7.12122 22.9858 7.64018 24.0722C7.13842 24.2088 6.61491 24.2776 6.06965 24.2786C5.27245 24.2786 4.48305 24.1216 3.74655 23.8164C3.01004 23.5113 2.34086 23.0641 1.77722 22.5003C1.21358 21.9365 0.766529 21.2672 0.46159 20.5307C0.15665 19.7941 -0.000199112 19.0046 1.89694e-07 18.2074V13.2774C2.50822e-05 12.6109 0.250633 11.9689 0.702077 11.4786C1.15352 10.9884 1.77279 10.6858 2.43697 10.631L2.65547 10.6219H7.78585ZM22.5715 10.6219H27.6928C29.1586 10.6219 30.3483 11.8115 30.3483 13.2774V18.209C30.3485 19.1394 30.1348 20.0574 29.7237 20.8921C29.3126 21.7268 28.7151 22.4558 27.9774 23.0228C27.2397 23.5897 26.3815 23.9795 25.4692 24.1621C24.5568 24.3446 23.6147 24.3149 22.7157 24.0753C23.1709 23.1223 23.4501 22.0723 23.5123 20.9615L23.526 20.4836V13.2774C23.526 12.2683 23.1694 11.3427 22.5715 10.6219ZM15.1741 0C16.3815 0 17.5393 0.47961 18.3931 1.33332C19.2468 2.18703 19.7264 3.34491 19.7264 4.55224C19.7264 5.75957 19.2468 6.91745 18.3931 7.77116C17.5393 8.62487 16.3815 9.10448 15.1741 9.10448C13.9668 9.10448 12.8089 8.62487 11.9552 7.77116C11.1015 6.91745 10.6219 5.75957 10.6219 4.55224C10.6219 3.34491 11.1015 2.18703 11.9552 1.33332C12.8089 0.47961 13.9668 0 15.1741 0ZM25.0373 1.51741C26.0434 1.51741 27.0083 1.91709 27.7198 2.62851C28.4312 3.33994 28.8309 4.30484 28.8309 5.31095C28.8309 6.31705 28.4312 7.28195 27.7198 7.99338C27.0083 8.70481 26.0434 9.10448 25.0373 9.10448C24.0312 9.10448 23.0663 8.70481 22.3549 7.99338C21.6435 7.28195 21.2438 6.31705 21.2438 5.31095C21.2438 4.30484 21.6435 3.33994 22.3549 2.62851C23.0663 1.91709 24.0312 1.51741 25.0373 1.51741ZM5.31095 1.51741C6.31705 1.51741 7.28195 1.91709 7.99338 2.62851C8.70481 3.33994 9.10448 4.30484 9.10448 5.31095C9.10448 6.31705 8.70481 7.28195 7.99338 7.99338C7.28195 8.70481 6.31705 9.10448 5.31095 9.10448C4.30484 9.10448 3.33994 8.70481 2.62851 7.99338C1.91709 7.28195 1.51741 6.31705 1.51741 5.31095C1.51741 4.30484 1.91709 3.33994 2.62851 2.62851C3.33994 1.91709 4.30484 1.51741 5.31095 1.51741Z" fill="#FFBC3A"/>
</svg>
