<svg width="30" height="30" viewBox="0 0 30 30" fill="none" xmlns="http://www.w3.org/2000/svg">
<path d="M14.5184 24.2665C12.4485 24.2668 10.4052 23.8006 8.54028 22.9028L2 24.2943L3.80901 18.8673C0.575054 14.0845 1.82466 7.91298 6.73127 4.43132C11.6379 0.951059 18.6847 1.23633 23.2142 5.09927C25.7774 7.28678 27.0869 10.2355 27.0688 13.1995M24.2662 25.6859C23.5281 25.6859 22.8202 25.3926 22.2982 24.8707C21.7763 24.3488 21.4831 23.6409 21.4831 22.9028C21.4831 22.1646 21.7763 21.4567 22.2982 20.9348C22.8202 20.4129 23.5281 20.1197 24.2662 20.1197M24.2662 25.6859C25.0043 25.6859 25.7122 25.3926 26.2341 24.8707C26.7561 24.3488 27.0493 23.6409 27.0493 22.9028C27.0493 22.1646 26.7561 21.4567 26.2341 20.9348C25.7122 20.4129 25.0043 20.1197 24.2662 20.1197M24.2662 25.6859V27.7732M24.2662 20.1197V18.0323M28.484 20.4675L26.6763 21.5112M21.8574 24.2943L20.0484 25.338M20.0484 20.4675L21.8574 21.5112M26.6763 24.2943L28.4854 25.338" stroke="#FFBC3A" stroke-width="2.7831" stroke-linecap="round" stroke-linejoin="round"/>
</svg>
