<svg width="47" height="48" viewBox="0 0 47 48" fill="none" xmlns="http://www.w3.org/2000/svg">
<path d="M0.195886 23.393C0.194745 27.5156 1.27193 31.5409 3.32018 35.089L0 47.2115L12.4059 43.9586C15.8372 45.8266 19.6817 46.8053 23.5885 46.8056H23.5988C36.4959 46.8056 46.9945 36.3109 47 23.4115C47.0025 17.1608 44.5704 11.2831 40.1518 6.86097C35.7339 2.43926 29.8582 0.00285271 23.5978 0C10.6992 0 0.201402 10.4942 0.196077 23.393" fill="url(#paint0_linear_56_11)"/>
<path d="M17.5433 13.2545C17.0895 12.246 16.612 12.2256 16.1804 12.2079C15.8271 12.1927 15.4231 12.1939 15.0196 12.1939C14.6156 12.1939 13.9593 12.3458 13.4046 12.9515C12.8492 13.5578 11.2844 15.023 11.2844 18.0029C11.2844 20.9829 13.455 23.863 13.7575 24.2675C14.0605 24.6713 17.9478 30.9822 24.1043 33.4101C29.221 35.4277 30.2622 35.0264 31.3727 34.9252C32.4833 34.8244 34.9564 33.4605 35.461 32.0461C35.9659 30.6319 35.9659 29.4197 35.8145 29.1664C35.6632 28.914 35.2592 28.7624 34.6535 28.4597C34.0478 28.1569 31.0697 26.6914 30.5146 26.4892C29.9592 26.2872 29.5555 26.1864 29.1515 26.7929C28.7476 27.3985 27.5877 28.7624 27.2341 29.1664C26.881 29.5713 26.5274 29.6217 25.9219 29.3187C25.3158 29.0148 23.3651 28.376 21.0508 26.3127C19.2502 24.7072 18.0345 22.7246 17.6812 22.1181C17.3278 21.5125 17.6433 21.1843 17.947 20.8825C18.2192 20.6111 18.553 20.1752 18.8561 19.8216C19.1581 19.4679 19.2589 19.2155 19.4609 18.8116C19.663 18.4073 19.5619 18.0535 19.4107 17.7506C19.2589 17.4476 18.0819 14.4521 17.5433 13.2545Z" fill="white"/>
<defs>
<linearGradient id="paint0_linear_56_11" x1="2350" y1="4721.15" x2="2350" y2="0" gradientUnits="userSpaceOnUse">
<stop stop-color="#1FAF38"/>
<stop offset="1" stop-color="#60D669"/>
</linearGradient>
</defs>
</svg>
