<svg width="34" height="34" viewBox="0 0 34 34" fill="none" xmlns="http://www.w3.org/2000/svg">
<path d="M17.174 18.6915V22.4851M17.174 22.4851L20.9675 24.7612M17.174 22.4851L13.3804 24.7612M13.9737 10.4307C13.1392 10.9103 10.9511 11.8875 12.2833 13.1135C12.9358 13.7114 13.6596 14.1393 14.5716 14.1393H19.7763C20.6868 14.1393 21.4136 13.7114 22.0646 13.1135C23.3984 11.889 21.2088 10.9103 20.3742 10.4307C19.3982 9.87804 18.2956 9.58754 17.174 9.58754C16.0523 9.58754 14.9498 9.87804 13.9737 10.4307ZM19.4501 4.27612C19.4501 4.87978 19.2103 5.45872 18.7834 5.88558C18.3566 6.31244 17.7776 6.55224 17.174 6.55224C16.5703 6.55224 15.9914 6.31244 15.5645 5.88558C15.1377 5.45872 14.8979 4.87978 14.8979 4.27612C14.8979 3.67246 15.1377 3.09352 15.5645 2.66666C15.9914 2.2398 16.5703 2 17.174 2C17.7776 2 18.3566 2.2398 18.7834 2.66666C19.2103 3.09352 19.4501 3.67246 19.4501 4.27612ZM23.8369 28.6397C23.0024 29.1192 20.8142 30.0964 22.1465 31.3225C22.799 31.9204 23.5228 32.3483 24.4348 32.3483H29.6395C30.55 32.3483 31.2768 31.9204 31.9278 31.3225C33.2616 30.0964 31.072 29.1177 30.2374 28.6397C29.2614 28.087 28.1588 27.7965 27.0372 27.7965C25.9155 27.7965 24.813 28.087 23.8369 28.6397ZM29.3133 22.4851C29.3133 23.0887 29.0735 23.6677 28.6466 24.0945C28.2198 24.5214 27.6408 24.7612 27.0372 24.7612C26.4335 24.7612 25.8546 24.5214 25.4277 24.0945C25.0008 23.6677 24.761 23.0887 24.761 22.4851C24.761 21.8814 25.0008 21.3025 25.4277 20.8756C25.8546 20.4488 26.4335 20.209 27.0372 20.209C27.6408 20.209 28.2198 20.4488 28.6466 20.8756C29.0735 21.3025 29.3133 21.8814 29.3133 22.4851ZM4.11056 28.6397C3.27598 29.1192 1.08787 30.0964 2.42016 31.3225C3.07265 31.9204 3.79645 32.3483 4.70842 32.3483H9.91315C10.8236 32.3483 11.5504 31.9204 12.2014 31.3225C13.5337 30.0964 11.3456 29.1177 10.511 28.6397C9.53498 28.087 8.43244 27.7965 7.31078 27.7965C6.18913 27.7965 5.08659 28.087 4.11056 28.6397ZM9.5869 22.4851C9.5869 22.784 9.52803 23.08 9.41364 23.3561C9.29926 23.6323 9.1316 23.8832 8.92024 24.0945C8.70889 24.3059 8.45797 24.4736 8.18182 24.5879C7.90567 24.7023 7.60969 24.7612 7.31078 24.7612C7.01188 24.7612 6.7159 24.7023 6.43975 24.5879C6.1636 24.4736 5.91268 24.3059 5.70132 24.0945C5.48997 23.8832 5.32231 23.6323 5.20792 23.3561C5.09354 23.08 5.03466 22.784 5.03466 22.4851C5.03466 21.8814 5.27447 21.3025 5.70132 20.8756C6.12818 20.4488 6.70712 20.209 7.31078 20.209C7.91445 20.209 8.49339 20.4488 8.92024 20.8756C9.3471 21.3025 9.5869 21.8814 9.5869 22.4851Z" stroke="#FFBC3A" stroke-width="2.27612" stroke-linecap="round" stroke-linejoin="round"/>
</svg>
