<svg width="21" height="27" viewBox="0 0 21 27" fill="none" xmlns="http://www.w3.org/2000/svg">
<path d="M3.4272 2.28293C3.27724 2.28293 3.12876 2.31246 2.99022 2.36985C2.85167 2.42724 2.72579 2.51135 2.61976 2.61738C2.51373 2.72341 2.42961 2.8493 2.37223 2.98784C2.31484 3.12638 2.28531 3.27486 2.28531 3.42482C2.28531 3.57477 2.31484 3.72326 2.37223 3.8618C2.42961 4.00034 2.51373 4.12622 2.61976 4.23226C2.72579 4.33829 2.85167 4.4224 2.99022 4.47979C3.12876 4.53717 3.27724 4.56671 3.4272 4.56671C3.73005 4.56671 4.02049 4.4464 4.23463 4.23226C4.44878 4.01811 4.56909 3.72767 4.56909 3.42482C4.56909 3.12197 4.44878 2.83153 4.23463 2.61738C4.02049 2.40323 3.73005 2.28293 3.4272 2.28293ZM0.00152956 3.42482C0.00171926 2.79683 0.17453 2.18097 0.501076 1.64456C0.827622 1.10814 1.29534 0.671811 1.8531 0.38325C2.41087 0.0946881 3.03723 -0.0349997 3.66372 0.00835959C4.29021 0.0517189 4.89273 0.266457 5.40543 0.629105C5.91813 0.991753 6.32128 1.48836 6.57081 2.06464C6.82035 2.64093 6.90667 3.27472 6.82035 3.89675C6.73402 4.51878 6.47837 5.10511 6.08134 5.59166C5.6843 6.07822 5.16116 6.44627 4.56909 6.6556V12.6026C4.70104 12.5051 4.83807 12.4148 4.98017 12.3316C6.42504 11.4607 8.27642 11.2064 9.84918 10.9917L10.1217 10.9537C11.8894 10.707 13.322 10.4634 14.3497 9.77068C15.1186 9.24998 15.7763 8.38519 15.9453 6.64038C15.1873 6.36128 14.5522 5.82326 14.1524 5.12135C13.7525 4.41944 13.6136 3.59881 13.7601 2.80439C13.9066 2.00997 14.3291 1.29288 14.953 0.779779C15.577 0.266678 16.3622 -0.0094218 17.1699 0.000245515C17.9777 0.00991283 18.756 0.304725 19.3675 0.832612C19.979 1.3605 20.3842 2.08749 20.5117 2.88519C20.6391 3.68289 20.4806 4.49996 20.064 5.1921C19.6475 5.88424 18.9997 6.40691 18.2352 6.66778C18.0434 9.0688 17.1116 10.6598 15.6287 11.6616C14.0864 12.7046 12.0934 12.9862 10.4369 13.2146L10.3988 13.2207C8.61747 13.4674 7.19087 13.6653 6.15707 14.2865C5.67748 14.5757 5.30142 14.9503 5.03498 15.4771C4.76092 16.0161 4.56909 16.7804 4.56909 17.8888V19.9868C5.3314 20.2562 5.97392 20.7864 6.3831 21.4837C6.79227 22.181 6.94174 23.0006 6.80508 23.7974C6.66842 24.5943 6.25444 25.3172 5.63631 25.8384C5.01818 26.3595 4.2357 26.6453 3.4272 26.6453C2.61869 26.6453 1.83622 26.3595 1.21809 25.8384C0.599957 25.3172 0.185975 24.5943 0.0493181 23.7974C-0.0873393 23.0006 0.062128 22.181 0.4713 21.4837C0.880472 20.7864 1.523 20.2562 2.28531 19.9868V6.6556C1.61725 6.41941 1.03887 5.98186 0.629852 5.40324C0.220838 4.82462 0.00131553 4.1334 0.00152956 3.42482ZM17.1299 2.28293C16.9799 2.28293 16.8314 2.31246 16.6929 2.36985C16.5543 2.42724 16.4285 2.51135 16.3224 2.61738C16.2164 2.72341 16.1323 2.8493 16.0749 2.98784C16.0175 3.12638 15.988 3.27486 15.988 3.42482C15.988 3.57477 16.0175 3.72326 16.0749 3.8618C16.1323 4.00034 16.2164 4.12622 16.3224 4.23226C16.4285 4.33829 16.5543 4.4224 16.6929 4.47979C16.8314 4.53717 16.9799 4.56671 17.1299 4.56671C17.4327 4.56671 17.7232 4.4464 17.9373 4.23226C18.1515 4.01811 18.2718 3.72767 18.2718 3.42482C18.2718 3.12197 18.1515 2.83153 17.9373 2.61738C17.7232 2.40323 17.4327 2.28293 17.1299 2.28293ZM3.4272 22.0757C3.12435 22.0757 2.83391 22.196 2.61976 22.4101C2.40561 22.6243 2.28531 22.9147 2.28531 23.2176C2.28531 23.5204 2.40561 23.8109 2.61976 24.025C2.83391 24.2392 3.12435 24.3595 3.4272 24.3595C3.73005 24.3595 4.02049 24.2392 4.23463 24.025C4.44878 23.8109 4.56909 23.5204 4.56909 23.2176C4.56909 22.9147 4.44878 22.6243 4.23463 22.4101C4.02049 22.196 3.73005 22.0757 3.4272 22.0757Z" fill="#FFBC3A"/>
</svg>
