<svg width="50" height="40" viewBox="0 0 50 40" fill="none" xmlns="http://www.w3.org/2000/svg">
<path d="M33.864 12.9641L41.7702 4.22422C43.3288 2.66562 42.2249 0 40.0202 0H2.47958C0.27489 0 -0.829016 2.66562 0.729578 4.22422L14.9999 20V32.1813C14.9999 33.1648 15.4632 34.0906 16.2499 34.6813L22.4991 39.3688C24.1288 40.5906 26.2858 39.9133 27.1257 38.3086C24.2811 35.5766 22.4999 31.7461 22.4999 27.5C22.4999 20.4852 27.3475 14.5961 33.864 12.9641ZM37.4999 15C30.596 15 24.9999 20.5961 24.9999 27.5C24.9999 34.4039 30.596 40 37.4999 40C44.4038 40 49.9999 34.4039 49.9999 27.5C49.9999 20.5961 44.4038 15 37.4999 15ZM38.7499 33.7406V35C38.7499 35.3453 38.4702 35.625 38.1249 35.625H36.8749C36.5296 35.625 36.2499 35.3453 36.2499 35V33.7273C35.3679 33.682 34.51 33.3742 33.7991 32.8406C33.4944 32.6117 33.4788 32.1555 33.7546 31.8922L34.6725 31.0164C34.889 30.8102 35.2108 30.8008 35.464 30.9594C35.7663 31.1484 36.1093 31.25 36.4655 31.25H38.6616C39.1694 31.25 39.5835 30.7875 39.5835 30.2195C39.5835 29.7547 39.3015 29.3453 38.8983 29.225L35.3827 28.1703C33.9304 27.7344 32.9155 26.3406 32.9155 24.7805C32.9155 22.8648 34.4038 21.3086 36.2491 21.2594V20C36.2491 19.6547 36.5288 19.375 36.8741 19.375H38.1241C38.4694 19.375 38.7491 19.6547 38.7491 20V21.2727C39.6311 21.318 40.489 21.625 41.1999 22.1594C41.5046 22.3883 41.5202 22.8445 41.2444 23.1078L40.3265 23.9836C40.11 24.1898 39.7882 24.1992 39.535 24.0406C39.2327 23.8508 38.8897 23.75 38.5335 23.75H36.3374C35.8296 23.75 35.4155 24.2125 35.4155 24.7805C35.4155 25.2453 35.6975 25.6547 36.1007 25.775L39.6163 26.8297C41.0686 27.2656 42.0835 28.6594 42.0835 30.2195C42.0835 32.1359 40.596 33.6914 38.7499 33.7406Z" fill="#FFBC3A"/>
</svg>
