<svg width="76" height="68" viewBox="0 0 76 68" fill="none" xmlns="http://www.w3.org/2000/svg">
<path d="M73.3203 14.3719C72.1684 11.7048 70.5075 9.28778 68.4305 7.25631C66.3519 5.21878 63.9012 3.59959 61.2117 2.48678C58.4228 1.32828 55.4316 0.735297 52.4117 0.742248C48.175 0.742248 44.0414 1.9024 40.4492 4.09381C39.5898 4.61803 38.7734 5.19381 38 5.82115C37.2266 5.19381 36.4102 4.61803 35.5508 4.09381C31.9586 1.9024 27.825 0.742248 23.5883 0.742248C20.5375 0.742248 17.5812 1.32662 14.7883 2.48678C12.0898 3.60397 9.65781 5.211 7.56953 7.25631C5.48981 9.28549 3.82848 11.703 2.67969 14.3719C1.48516 17.1477 0.875 20.0954 0.875 23.129C0.875 25.9907 1.45938 28.9727 2.61953 32.0063C3.59063 34.5415 4.98281 37.1712 6.76172 39.8266C9.58047 44.029 13.4562 48.4118 18.2687 52.8548C26.2437 60.2196 34.1414 65.3071 34.4766 65.5133L36.5133 66.8196C37.4156 67.3954 38.5758 67.3954 39.4781 66.8196L41.5148 65.5133C41.85 65.2985 49.7391 60.2196 57.7227 52.8548C62.5352 48.4118 66.4109 44.029 69.2297 39.8266C71.0086 37.1712 72.4094 34.5415 73.3719 32.0063C74.532 28.9727 75.1164 25.9907 75.1164 23.129C75.125 20.0954 74.5148 17.1477 73.3203 14.3719Z" fill="#FFBC3A"/>
</svg>
