<svg width="920" height="156" viewBox="0 0 920 156" fill="none" xmlns="http://www.w3.org/2000/svg">
<path d="M0.240762 147.612C-0.118764 148.032 -0.0703915 148.663 0.348802 149.022L7.18029 154.882C7.59949 155.241 8.23081 155.193 8.59033 154.774C8.94992 154.354 8.90154 153.723 8.48229 153.364L2.40991 148.155L7.61817 142.083C7.97769 141.664 7.92933 141.032 7.51014 140.673C7.09095 140.313 6.45961 140.362 6.10003 140.781L0.240762 147.612ZM919.64 101.323C918.126 100.513 916.616 99.7088 915.11 98.9104L914.173 100.678C915.678 101.475 917.185 102.277 918.696 103.086L919.64 101.323ZM906.11 94.1875C903.124 92.6356 900.15 91.1061 897.19 89.5987L896.282 91.381C899.238 92.8859 902.206 94.4129 905.188 95.9622L906.11 94.1875ZM888.348 85.1426C885.413 83.6792 882.492 82.2377 879.583 80.8179L878.706 82.6152C881.61 84.0325 884.526 85.4715 887.455 86.9324L888.348 85.1426ZM870.443 76.4074C867.381 74.9472 864.334 73.5112 861.3 72.0991L860.456 73.9123C863.484 75.3217 866.526 76.7551 869.582 78.2126L870.443 76.4074ZM852.242 67.9343C849.237 66.5698 846.245 65.229 843.268 63.9115L842.458 65.7405C845.43 67.0553 848.416 68.3936 851.415 69.7554L852.242 67.9343ZM834.132 59.9242C831.002 58.5769 827.887 57.2557 824.788 55.9601L824.016 57.8054C827.109 59.0982 830.218 60.4167 833.341 61.7613L834.132 59.9242ZM815.534 52.1503C812.464 50.9058 809.41 49.6868 806.37 48.4928L805.639 50.3543C808.672 51.5456 811.72 52.762 814.783 54.0037L815.534 52.1503ZM797.125 44.9216C793.936 43.7105 790.763 42.5272 787.607 41.3712L786.919 43.2493C790.068 44.4025 793.233 45.583 796.415 46.7913L797.125 44.9216ZM778.185 37.9852C775.06 36.8837 771.951 35.8092 768.858 34.7613L768.216 36.6555C771.302 37.7008 774.403 38.7726 777.52 39.8715L778.185 37.9852ZM759.409 31.6272C756.173 30.5768 752.954 29.5557 749.752 28.5635L749.16 30.4739C752.353 31.4634 755.564 32.4818 758.792 33.5295L759.409 31.6272ZM740.195 25.6729C737.026 24.738 733.874 23.8315 730.738 22.9529L730.199 24.8787C733.326 25.7548 736.469 26.6588 739.629 27.5912L740.195 25.6729ZM721.018 20.3051C717.748 19.4399 714.496 18.6052 711.262 17.8005L710.779 19.7413C714.004 20.5436 717.246 21.3758 720.507 22.2386L721.018 20.3051ZM701.61 15.4759C698.375 14.7228 695.158 13.9997 691.958 13.3062L691.535 15.2609C694.725 15.9521 697.932 16.673 701.156 17.4238L701.61 15.4759ZM682.038 11.2396C678.75 10.5823 675.479 9.95627 672.227 9.36101L671.867 11.3283C675.108 11.9216 678.368 12.5456 681.646 13.2008L682.038 11.2396ZM662.522 7.66681C659.174 7.11076 655.845 6.5873 652.534 6.09578L652.241 8.07409C655.54 8.56393 658.857 9.0856 662.194 9.63978L662.522 7.66681ZM642.604 4.70932C639.312 4.27897 636.039 3.88019 632.783 3.5123L632.558 5.49964C635.802 5.86623 639.064 6.2636 642.345 6.69244L642.604 4.70932ZM622.792 2.47426C619.438 2.15646 616.103 1.87137 612.787 1.6182L612.634 3.61241C615.939 3.86464 619.261 4.14869 622.603 4.46534L622.792 2.47426ZM602.891 0.953681C599.536 0.759218 596.199 0.597323 592.88 0.46715L592.802 2.46562C596.108 2.59529 599.433 2.75658 602.776 2.95033L602.891 0.953681ZM582.845 0.168302C579.519 0.100675 576.21 0.0647579 572.919 0.0596593L572.916 2.05965C576.195 2.06473 579.491 2.10053 582.805 2.16789L582.845 0.168302ZM562.891 0.139502C559.533 0.198211 556.193 0.288756 552.87 0.410157L552.943 2.40883C556.253 2.28788 559.581 2.19769 562.926 2.13919L562.891 0.139502ZM542.953 0.866003C539.594 1.05205 536.253 1.2693 532.929 1.51669L533.077 3.51118C536.389 3.26471 539.718 3.0483 543.064 2.86294L542.953 0.866003ZM522.958 2.35282C519.649 2.66142 516.357 2.99944 513.081 3.36583L513.304 5.35343C516.568 4.98839 519.847 4.65163 523.143 4.34418L522.958 2.35282ZM503.095 4.57585C499.782 5.00804 496.485 5.46868 493.203 5.95666L493.497 7.93492C496.767 7.44866 500.053 6.98966 503.353 6.55904L503.095 4.57585ZM483.355 7.50954C480.047 8.06059 476.755 8.63876 473.477 9.24288L473.839 11.2098C477.106 10.6077 480.387 10.0315 483.683 9.48235L483.355 7.50954ZM463.684 11.1319C460.408 11.7918 457.146 12.4769 453.897 13.186L454.324 15.14C457.563 14.4332 460.814 13.7503 464.079 13.0925L463.684 11.1319ZM444.139 15.3954C440.899 16.1552 437.671 16.938 434.455 17.7426L434.94 19.6828C438.147 18.8806 441.365 18.1001 444.596 17.3425L444.139 15.3954ZM424.755 20.2431C421.531 21.0983 418.319 21.9744 415.116 22.8701L415.655 24.7962C418.849 23.9028 422.053 23.0291 425.268 22.1762L424.755 20.2431ZM405.52 25.6209C402.317 26.5608 399.124 27.5193 395.939 28.4951L396.525 30.4073C399.702 29.4337 402.888 28.4775 406.083 27.54L405.52 25.6209ZM386.412 31.4732C383.236 32.4853 380.067 33.5136 376.906 34.5566L377.533 36.4559C380.688 35.4149 383.85 34.3888 387.019 33.3788L386.412 31.4732ZM367.433 37.7328C364.282 38.8057 361.137 39.8923 357.998 40.9911L358.659 42.8788C361.793 41.7818 364.932 40.6971 368.078 39.626L367.433 37.7328ZM348.58 44.3292C345.446 45.4533 342.317 46.5885 339.192 47.7334L339.88 49.6113C343.001 48.4679 346.126 47.3342 349.255 46.2118L348.58 44.3292ZM329.827 51.1966C326.708 52.36 323.593 53.5319 320.48 54.7109L321.189 56.5813C324.299 55.4033 327.411 54.2326 330.526 53.0704L329.827 51.1966ZM311.149 58.268C308.043 59.4588 304.94 60.6554 301.837 61.8566L302.559 63.7217C305.66 62.5212 308.762 61.3254 311.865 60.1354L311.149 58.268ZM292.53 65.472C289.431 66.6798 286.332 67.8909 283.232 69.1039L283.96 70.9664C287.06 69.7536 290.158 68.5429 293.257 67.3355L292.53 65.472ZM273.942 72.742C270.844 73.9557 267.745 75.17 264.644 76.3837L265.372 78.2461C268.474 77.0323 271.574 75.8179 274.672 74.6041L273.942 72.742ZM255.354 80.0125C252.257 81.2195 249.158 82.4245 246.054 83.6264L246.776 85.4914C249.881 84.289 252.983 83.0834 256.08 81.8759L255.354 80.0125ZM236.736 87.2188C233.638 88.4076 230.535 89.5918 227.426 90.7704L228.135 92.6405C231.246 91.4609 234.352 90.2757 237.452 89.0861L236.736 87.2188ZM218.084 94.2876C214.974 95.4501 211.857 96.6056 208.733 97.7529L209.422 99.6303C212.55 98.4816 215.67 97.3248 218.785 96.1611L218.084 94.2876ZM199.366 101.159C196.237 102.286 193.099 103.403 189.954 104.509L190.617 106.396C193.768 105.288 196.91 104.169 200.044 103.041L199.366 101.159ZM180.551 107.775C177.411 108.852 174.262 109.916 171.103 110.968L171.734 112.866C174.899 111.812 178.054 110.745 181.199 109.667L180.551 107.775ZM161.614 114.077C158.464 115.093 155.303 116.094 152.131 117.081L152.725 118.991C155.904 118.002 159.071 116.998 162.228 115.981L161.614 114.077ZM142.582 119.995C139.406 120.944 136.219 121.878 133.02 122.794L133.57 124.717C136.778 123.798 139.972 122.862 143.155 121.911L142.582 119.995ZM123.435 125.477C120.227 126.354 117.006 127.212 113.771 128.051L114.274 129.987C117.517 129.146 120.746 128.285 123.962 127.406L123.435 125.477ZM104.138 130.483C100.922 131.272 97.6908 132.041 94.4453 132.789L94.8946 134.738C98.1493 133.987 101.389 133.216 104.615 132.425L104.138 130.483ZM84.6766 134.967C81.4567 135.661 78.2219 136.333 74.9716 136.983L75.3638 138.944C78.6239 138.292 81.8683 137.618 85.0977 136.922L84.6766 134.967ZM65.1736 138.865C61.9103 139.466 58.6311 140.044 55.3353 140.598L55.6668 142.57C58.973 142.015 62.2625 141.435 65.5359 140.832L65.1736 138.865ZM45.545 142.164C42.2651 142.662 38.9684 143.136 35.6544 143.584L35.9226 145.566C39.2474 145.116 42.5548 144.641 45.8453 144.141L45.545 142.164ZM25.7627 144.84C22.4945 145.228 19.2092 145.591 15.9063 145.928L16.1093 147.918C19.4232 147.58 22.7194 147.216 25.9983 146.827L25.7627 144.84ZM5.94404 146.86C4.2751 147.002 2.60158 147.138 0.923453 147.266L1.07621 149.26C2.76002 149.131 4.43911 148.996 6.11368 148.853L5.94404 146.86Z" fill="#FFBC3A"/>
</svg>
