<svg width="1027" height="223" viewBox="0 0 1027 223" fill="none" xmlns="http://www.w3.org/2000/svg">
<path d="M1026.36 216.017C1026.69 216.462 1026.6 217.088 1026.15 217.415L1018.9 222.743C1018.45 223.07 1017.83 222.974 1017.5 222.529C1017.17 222.084 1017.27 221.458 1017.71 221.131L1024.16 216.395L1019.42 209.948C1019.1 209.502 1019.19 208.877 1019.64 208.55C1020.08 208.223 1020.71 208.319 1021.04 208.764L1026.36 216.017ZM0.30921 86.3361C1.87714 85.6437 3.44172 84.956 5.00297 84.2731L5.80444 86.1055C4.24537 86.7875 2.68296 87.4742 1.11719 88.1657L0.30921 86.3361ZM14.3306 80.233C17.4266 78.9053 20.5094 77.5964 23.579 76.3064L24.3539 78.1502C21.2887 79.4383 18.2104 80.7453 15.1189 82.0711L14.3306 80.233ZM32.749 72.4924C35.7927 71.2397 38.8234 70.0056 41.8412 68.7899L42.5885 70.6451C39.5753 71.8589 36.5493 73.0911 33.5102 74.3419L32.749 72.4924ZM50.9995 65.1417C54.1781 63.8897 57.3423 62.6584 60.4924 61.4475L61.21 63.3143C58.0651 64.5232 54.9059 65.7526 51.7324 67.0025L50.9995 65.1417ZM69.9001 57.8757C73.0219 56.7054 76.1297 55.5553 79.2235 54.4251L79.9097 56.3037C76.8212 57.4319 73.7187 58.5801 70.6022 59.7484L69.9001 57.8757ZM88.4635 51.0946C91.5895 49.983 94.7012 48.892 97.7987 47.8214L98.4521 49.7117C95.3602 50.7804 92.2541 51.8694 89.1336 52.979L88.4635 51.0946ZM107.425 44.5443C110.619 43.4738 113.797 42.4252 116.961 41.3981L117.578 43.3004C114.421 44.3255 111.248 45.3721 108.061 46.4406L107.425 44.5443ZM126.406 38.3814C129.54 37.3973 132.659 36.4345 135.763 35.4928L136.344 37.4067C133.246 38.3465 130.133 39.3074 127.006 40.2896L126.406 38.3814ZM145.398 32.6242C148.654 31.6728 151.894 30.7449 155.119 29.84L155.659 31.7656C152.442 32.6686 149.208 33.5946 145.958 34.5439L145.398 32.6242ZM164.744 27.1946C167.937 26.3357 171.113 25.4997 174.275 24.6862L174.773 26.6231C171.619 27.4347 168.449 28.2689 165.264 29.1259L164.744 27.1946ZM183.859 22.2769C187.167 21.4651 190.458 20.6783 193.732 19.9159L194.185 21.8638C190.919 22.6244 187.636 23.4094 184.336 24.2193L183.859 22.2769ZM203.503 17.7022C206.744 16.9885 209.967 16.2991 213.175 15.6335L213.581 17.5918C210.382 18.2557 207.166 18.9435 203.933 19.6553L203.503 17.7022ZM222.809 13.696C226.155 13.0447 229.483 12.4196 232.793 11.8202L233.149 13.7882C229.848 14.3861 226.528 15.0096 223.191 15.6591L222.809 13.696ZM242.67 10.0988C245.945 9.55051 249.203 9.02751 252.443 8.52944L252.747 10.5062C249.515 11.0029 246.267 11.5245 243 12.0714L242.67 10.0988ZM262.2 7.09761C265.567 6.62691 268.917 6.18327 272.247 5.76625L272.496 7.75076C269.174 8.16659 265.835 8.60896 262.477 9.07835L262.2 7.09761ZM282.186 4.59458C285.48 4.23033 288.757 3.89223 292.017 3.57983L292.207 5.57071C288.958 5.88218 285.691 6.21928 282.405 6.58247L282.186 4.59458ZM301.932 2.70393C305.305 2.43144 308.658 2.18656 311.994 1.96877L312.124 3.96452C308.799 4.18163 305.455 4.42577 302.093 4.69743L301.932 2.70393ZM321.945 1.39616C325.244 1.23203 328.525 1.09446 331.788 0.98294L331.856 2.98177C328.603 3.09294 325.333 3.23008 322.044 3.39368L321.945 1.39616ZM341.861 0.719823C345.222 0.659212 348.564 0.626274 351.887 0.620394L351.891 2.62039C348.578 2.62625 345.247 2.65909 341.897 2.7195L341.861 0.719823ZM361.804 0.68338C365.139 0.73173 368.455 0.807328 371.753 0.909536L371.691 2.90858C368.404 2.8067 365.099 2.73137 361.775 2.68316L361.804 0.68338ZM381.809 1.30565C385.142 1.46504 388.457 1.65158 391.755 1.86459L391.626 3.86043C388.339 3.64813 385.035 3.46222 381.713 3.30336L381.809 1.30565ZM401.615 2.58414C404.979 2.85792 408.326 3.15916 411.654 3.48714L411.458 5.4775C408.141 5.15062 404.806 4.8504 401.452 4.57755L401.615 2.58414ZM421.586 4.55059C424.879 4.93132 428.154 5.33807 431.413 5.7701L431.15 7.75274C427.902 7.32218 424.638 6.9168 421.356 6.53735L421.586 4.55059ZM441.355 7.17373C444.665 7.66946 447.958 8.19104 451.234 8.73769L450.904 10.7104C447.639 10.1656 444.358 9.64574 441.059 9.15166L441.355 7.17373ZM461.012 10.4521C464.305 11.0572 467.581 11.6873 470.841 12.3416L470.447 14.3025C467.198 13.6503 463.932 13.0222 460.651 12.4191L461.012 10.4521ZM480.634 14.3894C483.882 15.096 487.115 15.8262 490.333 16.5792L489.877 18.5266C486.67 17.7759 483.447 17.048 480.209 16.3437L480.634 14.3894ZM500.046 18.9319C503.289 19.7438 506.516 20.5785 509.73 21.4349L509.215 23.3675C506.011 22.5135 502.793 21.6814 499.56 20.872L500.046 18.9319ZM519.328 24.069C522.539 24.9755 525.736 25.9033 528.92 26.8515L528.349 28.7683C525.174 27.8228 521.986 26.8976 518.785 25.9938L519.328 24.069ZM538.481 29.7709C541.655 30.7641 544.816 31.7769 547.965 32.8084L547.343 34.7091C544.202 33.6802 541.049 32.6701 537.883 31.6797L538.481 29.7709ZM557.434 35.9777C560.59 37.0562 563.734 38.1528 566.867 39.2667L566.197 41.1512C563.072 40.04 559.935 38.946 556.788 37.8702L557.434 35.9777ZM576.235 42.6591C579.361 43.8115 582.477 44.9804 585.583 46.1647L584.871 48.0335C581.771 46.8517 578.662 45.6854 575.543 44.5356L576.235 42.6591ZM594.893 49.7707C597.988 50.9876 601.073 52.2191 604.15 53.4641L603.4 55.3181C600.329 54.0754 597.249 52.8464 594.161 51.632L594.893 49.7707ZM613.385 57.2506C616.459 58.5271 619.525 59.8164 622.585 61.1174L621.802 62.9579C618.748 61.659 615.687 60.3719 612.618 59.0977L613.385 57.2506ZM631.743 65.0548C634.795 66.3805 637.84 67.7171 640.88 69.0636L640.07 70.8922C637.034 69.5476 633.993 68.2129 630.946 66.8891L631.743 65.0548ZM649.988 73.133C653.019 74.4987 656.045 75.8732 659.067 77.2557L658.235 79.0744C655.216 77.6934 652.193 76.3204 649.166 74.9564L649.988 73.133ZM668.126 81.4272C671.142 82.825 674.154 84.2298 677.165 85.6405L676.316 87.4515C673.308 86.0419 670.298 84.6383 667.285 83.2418L668.126 81.4272ZM686.188 89.8895C689.191 91.3098 692.192 92.735 695.192 94.1642L694.331 95.9698C691.333 94.5412 688.334 93.1168 685.333 91.6975L686.188 89.8895ZM704.188 98.4627C707.186 99.8987 710.183 101.338 713.181 102.779L712.314 104.581C709.317 103.141 706.321 101.702 703.324 100.266L704.188 98.4627ZM722.157 107.098C725.15 108.54 728.143 109.982 731.139 111.424L730.271 113.226C727.276 111.784 724.282 110.341 721.289 108.9L722.157 107.098ZM740.127 115.749C743.117 117.186 746.109 118.622 749.104 120.056L748.24 121.86C745.244 120.425 742.251 118.988 739.261 117.551L740.127 115.749ZM758.099 124.352C761.099 125.78 764.102 127.206 767.109 128.627L766.254 130.436C763.245 129.013 760.24 127.587 757.24 126.158L758.099 124.352ZM776.114 132.866C779.12 134.274 782.132 135.678 785.15 137.076L784.309 138.891C781.288 137.491 778.274 136.086 775.266 134.677L776.114 132.866ZM794.207 141.247C797.219 142.625 800.238 143.996 803.264 145.361L802.442 147.184C799.412 145.818 796.39 144.445 793.375 143.065L794.207 141.247ZM812.363 149.43C815.398 150.776 818.44 152.113 821.491 153.441L820.692 155.275C817.637 153.945 814.591 152.606 811.553 151.258L812.363 149.43ZM830.621 157.377C833.673 158.68 836.734 159.972 839.805 161.253L839.035 163.099C835.959 161.815 832.893 160.521 829.836 159.217L830.621 157.377ZM849.022 165.053C852.085 166.3 855.158 167.536 858.241 168.759L857.504 170.618C854.414 169.392 851.336 168.155 848.268 166.905L849.022 165.053ZM867.525 172.389C870.621 173.583 873.728 174.763 876.847 175.929L876.147 177.802C873.021 176.634 869.908 175.451 866.806 174.256L867.525 172.389ZM886.165 179.355C889.284 180.483 892.414 181.596 895.558 182.693L894.899 184.581C891.748 183.482 888.61 182.366 885.485 181.236L886.165 179.355ZM904.997 185.927C908.123 186.977 911.263 188.012 914.416 189.029L913.802 190.932C910.641 189.912 907.494 188.875 904.36 187.823L904.997 185.927ZM923.919 192.03C927.093 193.011 930.282 193.974 933.485 194.919L932.919 196.837C929.708 195.89 926.511 194.924 923.329 193.941L923.919 192.03ZM943.001 197.657C946.187 198.552 949.389 199.428 952.607 200.284L952.093 202.217C948.866 201.358 945.655 200.48 942.46 199.583L943.001 197.657ZM962.308 202.794C965.491 203.595 968.69 204.376 971.906 205.136L971.445 207.083C968.221 206.32 965.012 205.537 961.82 204.734L962.308 202.794ZM981.601 207.358C984.85 208.078 988.115 208.777 991.397 209.454L990.993 211.413C987.701 210.733 984.426 210.032 981.168 209.31L981.601 207.358ZM1001.11 211.385C1004.34 212.004 1007.6 212.602 1010.87 213.178L1010.52 215.148C1007.24 214.57 1003.98 213.97 1000.73 213.349L1001.11 211.385ZM1020.74 214.84C1022.39 215.106 1024.05 215.366 1025.71 215.621L1025.41 217.598C1023.74 217.342 1022.08 217.081 1020.42 216.815L1020.74 214.84Z" fill="#FFBC3A"/>
</svg>
