<svg width="502" height="166" viewBox="0 0 502 166" fill="none" xmlns="http://www.w3.org/2000/svg">
<path d="M0.126759 159.152C-0.142376 159.635 0.0304065 160.244 0.512684 160.513L8.37171 164.899C8.85399 165.168 9.46311 164.995 9.73224 164.513C10.0014 164.031 9.82863 163.421 9.34635 163.152L2.36054 159.254L6.25906 152.268C6.52819 151.786 6.35544 151.177 5.87316 150.907C5.39088 150.638 4.78176 150.811 4.51263 151.293L0.126759 159.152ZM527.423 24.3093C525.758 23.8098 524.1 23.3187 522.45 22.8361L521.888 24.7557C523.534 25.237 525.188 25.7268 526.849 26.225L527.423 24.3093ZM512.638 20.041C509.398 19.1425 506.187 18.2772 503.006 17.4445L502.499 19.3793C505.671 20.2096 508.873 21.0724 512.104 21.9683L512.638 20.041ZM493.093 14.9313C489.777 14.1184 486.494 13.3416 483.243 12.6002L482.798 14.5501C486.039 15.2891 489.311 16.0634 492.616 16.8737L493.093 14.9313ZM473.455 10.4542C470.072 9.74276 466.725 9.07042 463.411 8.43633L463.035 10.4007C466.337 11.0325 469.672 11.7024 473.043 12.4113L473.455 10.4542ZM453.573 6.64797C450.172 6.06276 446.807 5.51866 443.478 5.01473L443.179 6.9922C446.494 7.49409 449.846 8.03604 453.234 8.61901L453.573 6.64797ZM433.493 3.60875C430.101 3.16753 426.747 2.76886 423.429 2.41168L423.215 4.40018C426.518 4.75577 429.857 5.1527 433.235 5.59204L433.493 3.60875ZM413.335 1.44223C409.941 1.15628 406.586 0.914606 403.269 0.715986L403.15 2.71241C406.45 2.91005 409.789 3.15056 413.167 3.43517L413.335 1.44223ZM393.113 0.236985C389.711 0.120443 386.35 0.0500096 383.029 0.0242794L383.013 2.02422C386.317 2.04981 389.66 2.11987 393.044 2.23581L393.113 0.236985ZM372.861 0.0860844C369.453 0.154556 366.087 0.270836 362.762 0.433291L362.86 2.43091C366.166 2.26939 369.512 2.15377 372.901 2.08568L372.861 0.0860844ZM352.637 1.07874C349.231 1.34723 345.868 1.66478 342.546 2.02951L342.765 4.01756C346.066 3.65507 349.408 3.33944 352.794 3.07256L352.637 1.07874ZM332.517 3.2897C329.126 3.77009 325.778 4.30004 322.472 4.87735L322.816 6.84754C326.101 6.2739 329.428 5.74731 332.797 5.26993L332.517 3.2897ZM312.581 6.76889C309.224 7.46714 305.909 8.21431 302.635 9.00793L303.106 10.9517C306.359 10.1631 309.652 9.42075 312.988 8.72698L312.581 6.76889ZM292.843 11.55C289.564 12.4582 286.324 13.4126 283.122 14.4107L283.717 16.3201C286.899 15.3283 290.118 14.3798 293.377 13.4774L292.843 11.55ZM273.481 17.5834C270.278 18.693 267.113 19.8454 263.981 21.0377L264.692 22.9068C267.806 21.7215 270.953 20.576 274.136 19.4732L273.481 17.5834ZM254.549 24.7881C251.415 26.0867 248.314 27.424 245.243 28.7968L246.06 30.6227C249.114 29.2571 252.198 27.9271 255.314 26.6357L254.549 24.7881ZM236.065 33.0439C233.006 34.5071 229.974 36.0036 226.968 37.5304L227.873 39.3137C230.867 37.7937 233.884 36.3042 236.928 34.8482L236.065 33.0439ZM217.992 42.213C215.013 43.8074 212.056 45.4291 209.118 47.0749L210.096 48.8198C213.023 47.1799 215.969 45.5643 218.935 43.9763L217.992 42.213ZM200.325 52.1006C197.408 53.7997 194.507 55.5197 191.62 57.2572L192.651 58.9709C195.531 57.2378 198.424 55.5227 201.332 53.8288L200.325 52.1006ZM182.983 62.5255C180.114 64.2976 177.255 66.0841 174.402 67.8816L175.469 69.5736C178.317 67.7789 181.171 65.9956 184.034 64.2271L182.983 62.5255ZM165.866 73.3015C163.027 75.1159 160.192 76.938 157.357 78.7644L158.44 80.4456C161.274 78.6201 164.107 76.7994 166.943 74.9868L165.866 73.3015ZM148.867 84.2425C146.04 86.0679 143.211 87.8944 140.375 89.7186L141.457 91.4006C144.294 89.5753 147.125 87.7482 149.952 85.9226L148.867 84.2425ZM131.866 95.1704C129.033 96.9762 126.192 98.7766 123.338 100.568L124.402 102.262C127.26 100.468 130.105 98.6647 132.941 96.8569L131.866 95.1704ZM114.762 105.901C111.901 107.661 109.025 109.41 106.132 111.143L107.16 112.859C110.06 111.121 112.943 109.368 115.81 107.605L114.762 105.901ZM97.4475 116.266C94.5445 117.951 91.6214 119.618 88.6754 121.265L89.651 123.01C92.6071 121.358 95.5396 119.686 98.4514 117.996L97.4475 116.266ZM79.8271 126.106C76.8763 127.685 73.9004 129.241 70.8967 130.771L71.8045 132.553C74.8208 131.016 77.8086 129.454 80.7707 127.869L79.8271 126.106ZM61.8457 135.258C58.8373 136.707 55.7994 138.129 52.7293 139.521L53.5549 141.342C56.6398 139.944 59.6919 138.516 62.7139 137.059L61.8457 135.258ZM43.5002 143.566C40.4169 144.872 37.3 146.145 34.147 147.383L34.8782 149.245C38.0479 148 41.181 146.72 44.2799 145.408L43.5002 143.566ZM24.749 150.929C21.6041 152.067 18.4225 153.169 15.2019 154.234L15.8295 156.133C19.0682 155.062 22.2674 153.954 25.4295 152.81L24.749 150.929ZM5.61118 157.254C3.9932 157.738 2.36527 158.213 0.727125 158.678L1.27288 160.602C2.92034 160.134 4.55755 159.657 6.18475 159.17L5.61118 157.254Z" fill="#FFBC3A"/>
</svg>
