<svg width="623" height="102" viewBox="0 0 623 102" fill="none" xmlns="http://www.w3.org/2000/svg">
<path d="M622.019 54.9361C622.427 55.3081 622.456 55.9406 622.084 56.3488L616.022 63.0009C615.65 63.4091 615.018 63.4385 614.609 63.0665C614.201 62.6945 614.172 62.062 614.544 61.6538L619.932 55.7408L614.02 50.3522C613.611 49.9802 613.582 49.3477 613.954 48.9395C614.326 48.5313 614.958 48.502 615.367 48.874L622.019 54.9361ZM0.0384478 100.066C1.46336 99.0608 2.88426 98.0653 4.30119 97.079L5.44385 98.7204C4.03022 99.7045 2.6126 100.698 1.19095 101.7L0.0384478 100.066ZM12.7554 91.2698C15.5577 89.3695 18.3444 87.5052 21.1158 85.6764L22.2174 87.3456C19.4531 89.1698 16.6733 91.0295 13.8778 92.9251L12.7554 91.2698ZM29.585 80.1665C32.496 78.3 35.39 76.4728 38.2672 74.6844L39.3231 76.383C36.4539 78.1664 33.5678 79.9886 30.6645 81.8501L29.585 80.1665ZM46.8489 69.4345C49.7741 67.6739 52.6818 65.9536 55.5724 64.2728L56.5778 66.0018C53.6959 67.6774 50.7969 69.3926 47.8802 71.148L46.8489 69.4345ZM64.4651 59.1961C67.4114 57.5454 70.3399 55.936 73.2509 54.3671L74.1998 56.1277C71.2985 57.6913 68.3796 59.2954 65.4427 60.9409L64.4651 59.1961ZM82.2953 49.5933C85.3409 48.0199 88.3674 46.491 91.3751 45.0057L92.2606 46.799C89.2639 48.2788 86.2483 49.8022 83.2133 51.3702L82.2953 49.5933ZM100.397 40.6543C103.537 39.1763 106.656 37.7459 109.755 36.3622L110.57 38.1885C107.483 39.5667 104.376 40.9914 101.249 42.4638L100.397 40.6543ZM118.993 32.3498C122.159 31.0132 125.305 29.7253 128.43 28.485L129.168 30.344C126.056 31.5789 122.924 32.8613 119.771 34.1923L118.993 32.3498ZM137.917 24.8418C141.107 23.6577 144.276 22.5232 147.425 21.4367L148.078 23.3274C144.943 24.4087 141.789 25.5381 138.613 26.7169L137.917 24.8418ZM157.13 18.2191C160.357 17.193 163.562 16.2174 166.746 15.2908L167.305 17.2111C164.136 18.1331 160.947 19.1039 157.737 20.125L157.13 18.2191ZM176.634 12.5516C179.908 11.6905 183.16 10.8809 186.391 10.121L186.849 12.0679C183.635 12.8237 180.399 13.6291 177.142 14.4858L176.634 12.5516ZM196.405 7.90991C199.726 7.22427 203.025 6.59066 206.304 6.00715L206.654 7.97621C203.394 8.55651 200.112 9.18666 196.809 9.86861L196.405 7.90991ZM216.403 4.35631C219.757 3.85668 223.09 3.40875 226.402 3.01035L226.641 4.99605C223.347 5.3922 220.033 5.83763 216.697 6.33448L216.403 4.35631ZM236.572 1.9348C239.949 1.62646 243.306 1.36856 246.642 1.15876L246.768 3.15482C243.45 3.36346 240.112 3.6199 236.754 3.92651L236.572 1.9348ZM256.845 0.66251C260.239 0.545504 263.613 0.47684 266.969 0.453958L266.982 2.45392C263.645 2.47668 260.289 2.54496 256.914 2.66132L256.845 0.66251ZM277.155 0.523582C280.553 0.592777 283.933 0.707187 287.295 0.864032L287.202 2.86186C283.856 2.70581 280.495 2.592 277.115 2.52315L277.155 0.523582ZM297.44 1.46681C300.831 1.71097 304.204 1.99619 307.563 2.31953L307.371 4.31033C304.028 3.98848 300.67 3.70462 297.297 3.46166L297.44 1.46681ZM317.651 3.40764C321.024 3.80992 324.384 4.24829 327.731 4.7197L327.452 6.70016C324.119 6.23065 320.773 5.7941 317.414 5.39357L317.651 3.40764ZM337.757 6.23349C341.108 6.7725 344.447 7.34199 347.776 7.9388L347.423 9.90741C344.105 9.31259 340.778 8.74513 337.439 8.20811L337.757 6.23349ZM357.747 9.81052C361.071 10.4615 364.386 11.1369 367.694 11.8335L367.282 13.7905C363.983 13.0958 360.677 12.4223 357.363 11.7732L357.747 9.81052ZM377.609 13.9862C380.91 14.7236 384.206 15.479 387.497 16.2494L387.042 18.1968C383.756 17.4278 380.467 16.6739 377.173 15.9382L377.609 13.9862ZM397.363 18.6029C400.648 19.4001 403.93 20.2091 407.211 21.0266L406.728 22.9673C403.45 22.1506 400.172 21.3426 396.892 20.5464L397.363 18.6029ZM417.042 23.4995C420.316 24.3295 423.59 25.1649 426.865 26.0024L426.37 27.9401C423.095 27.1027 419.823 26.2677 416.551 25.4382L417.042 23.4995ZM436.685 28.5152C439.953 29.351 443.225 30.1859 446.501 31.0167L446.009 32.9553C442.731 32.1241 439.458 31.2888 436.189 30.4528L436.685 28.5152ZM456.332 33.4909C459.601 34.3062 462.876 35.1143 466.159 35.9122L465.686 37.8556C462.4 37.0566 459.121 36.2475 455.848 35.4315L456.332 33.4909ZM476.015 38.269C479.293 39.0387 482.579 39.7953 485.876 40.5357L485.438 42.4871C482.134 41.7451 478.841 40.9871 475.558 40.2161L476.015 38.269ZM495.766 42.6993C499.06 43.3994 502.365 44.0807 505.682 44.7402L505.292 46.7018C501.966 46.0405 498.652 45.3574 495.351 44.6556L495.766 42.6993ZM515.614 46.6394C518.927 47.247 522.254 47.8303 525.596 48.3865L525.267 50.3593C521.914 49.8013 518.577 49.2161 515.253 48.6066L515.614 46.6394ZM535.569 49.956C538.902 50.4496 542.25 50.9139 545.616 51.3461L545.361 53.3298C541.982 52.8959 538.621 52.4298 535.276 51.9345L535.569 49.956ZM555.63 52.5294C558.973 52.8895 562.334 53.216 565.715 53.5063L565.544 55.499C562.148 55.2074 558.773 54.8795 555.416 54.5179L555.63 52.5294ZM575.778 54.2573C579.127 54.4691 582.496 54.6437 585.886 54.7786L585.806 56.777C582.4 56.6415 579.016 56.4661 575.651 56.2533L575.778 54.2573ZM595.981 55.0594C599.33 55.1122 602.7 55.1249 606.092 55.0951L606.11 57.095C602.701 57.125 599.315 57.1123 595.949 57.0592L595.981 55.0594ZM616.197 54.8806C617.892 54.8235 619.592 54.7555 621.299 54.6763L621.392 56.6742C619.677 56.7537 617.967 56.8221 616.264 56.8795L616.197 54.8806Z" fill="#FFBC3A"/>
</svg>
